<svg width="102" height="35" viewBox="0 0 102 35" fill="none" xmlns="http://www.w3.org/2000/svg">
<path fill-rule="evenodd" clip-rule="evenodd" d="M93.1455 15.2486L51.2156 10.2003L9.30493 15.2486V20.032C9.30493 28.2661 22.6781 35 39.0297 35H63.4207C79.7723 35 93.1455 28.2657 93.1455 20.032V15.2486Z" fill="#29CC57"/>
<path fill-rule="evenodd" clip-rule="evenodd" d="M95.0858 15.1349H78.3453H74.7248V19.8203C74.7248 28.0544 61.3516 34.7883 45 34.7883H65.3617C81.7133 34.7883 95.0865 28.054 95.0865 19.8203L95.0858 15.1349Z" fill="#048E21"/>
<path fill-rule="evenodd" clip-rule="evenodd" d="M96.3214 20.1392C99.4416 20.1392 102 17.6224 102 14.5529V5.72546C102 2.65599 99.4416 0.139191 96.3214 0.139191C66.1069 0.139191 35.8924 0.139191 5.65893 0.139191C5.09711 0.139191 4.53462 0.234758 4.01152 0.387129C1.68613 1.09285 0 3.22805 0 5.72546V14.5529C0 17.0503 1.68613 19.1862 4.01152 19.8913C4.53462 20.0436 5.09711 20.1392 5.65893 20.1392H96.3214Z" fill="#365E7D"/>
<path fill-rule="evenodd" clip-rule="evenodd" d="M80.9942 17.0642C80.0228 18.7991 78.1374 20 76 20H92.7112H96.3063C99.4348 20 102 17.4832 102 14.4137V5.58627C102 2.5168 99.4348 0 96.3063 0H92.7112H76C79.1285 0 81.6739 2.5168 81.6739 5.58627V14.4137C81.6739 15.3674 81.441 16.2823 80.9942 17.0642Z" fill="#2B4D66"/>
</svg>
